<?xml version="1.0" standalone="no"?>
<!DOCTYPE svg PUBLIC "-//W3C//DTD SVG 20010904//EN"
 "http://www.w3.org/TR/2001/REC-SVG-20010904/DTD/svg10.dtd">
<svg version="1.0" xmlns="http://www.w3.org/2000/svg"
 width="346.000000pt" height="324.000000pt" viewBox="0 0 346.000000 324.000000"
 preserveAspectRatio="xMidYMid meet">

<g transform="translate(0.000000,324.000000) scale(0.100000,-0.100000)"
fill="#000000" stroke="none">
<path d="M792 1863 c-12 -32 -46 -132 -77 -223 -30 -91 -64 -190 -75 -220 -11
-30 -16 -58 -11 -63 4 -4 39 -7 76 -5 l68 3 13 40 c7 22 22 74 34 115 35 123
36 123 48 24 7 -50 12 -109 12 -132 0 -48 13 -55 95 -50 l50 3 55 122 c30 67
59 125 63 130 5 4 7 -50 5 -121 l-3 -129 75 0 75 0 6 114 c4 63 7 189 8 282
l1 167 -79 0 -78 0 -30 -62 c-17 -35 -50 -103 -74 -152 l-44 -89 -12 119 c-7
65 -15 134 -18 152 l-6 32 -78 0 -79 0 -20 -57z"/>
<path d="M2961 1849 c-122 -33 -245 -105 -383 -224 l-73 -63 -23 59 c-18 45
-29 59 -44 59 -20 0 -20 -4 -13 -117 9 -157 26 -223 59 -223 6 0 37 41 69 90
108 165 263 283 462 350 86 30 107 48 86 74 -17 21 -49 19 -140 -5z"/>
<path d="M1470 1763 c-30 -15 -67 -44 -82 -63 -82 -104 -91 -301 -15 -338 51
-24 65 -23 151 13 14 6 17 5 12 -3 -5 -9 13 -12 68 -12 l74 0 10 48 c32 154
65 363 59 369 -4 3 -56 8 -115 10 -101 3 -110 2 -162 -24z m120 -108 c0 -2
-11 -30 -26 -62 -26 -60 -71 -116 -86 -107 -21 13 4 118 38 155 15 16 74 28
74 14z"/>
<path d="M1843 1770 c-97 -44 -112 -162 -29 -239 45 -42 36 -56 -36 -52 -33 2
-38 0 -44 -25 -4 -15 -7 -44 -8 -63 l-1 -36 70 -3 c57 -2 78 2 115 20 64 33
93 80 87 141 -3 40 -11 56 -47 92 -49 50 -46 68 12 63 45 -3 50 3 62 80 l6 42
-72 0 c-50 0 -86 -6 -115 -20z"/>
<path d="M2118 1770 c-54 -29 -78 -68 -78 -128 0 -43 5 -55 40 -95 53 -60 52
-70 -10 -65 l-50 3 -11 -52 c-17 -74 -11 -83 59 -83 114 0 193 48 208 125 9
51 -2 81 -46 129 -57 62 -54 71 26 66 29 -1 32 2 38 37 3 21 9 48 12 61 6 21
4 22 -72 22 -58 -1 -89 -6 -116 -20z"/>
</g>
</svg>
