<svg id="Layer_1" data-name="Layer 1" xmlns="http://www.w3.org/2000/svg" viewBox="0 0 500 500" width="500" height="500" class="illustration"><defs><style>.cls-1{fill:#0099f5;}.cls-2{fill:#f2f2f2;}.cls-3{fill:#f0457d;}.cls-4{fill:#c3c7c9;}.cls-5{fill:#ffd44d;}.cls-6{fill:#f9bb0d;}.cls-7{fill:#fff;}.cls-8{fill:#fcca3a;}</style></defs><title>Digital Nomad</title><path class="cls-1" d="M248.49,362H376.13a18.29,18.29,0,0,0,18.24-18.24V174.25a24.22,24.22,0,0,0-24.11-23.94H248.49Z"></path><path class="cls-2" d="M243.49,349.67H365.26a24.22,24.22,0,0,0,24.22-24.22V161.76a24.21,24.21,0,0,0-24.22-24.21H243.49Z"></path><path class="cls-1" d="M229,362H101.35a18.23,18.23,0,0,1-18-18.13V174.25a24.16,24.16,0,0,1,24-23.94H229Z"></path><path class="cls-2" d="M234,137.55V349.67H112.38a24.22,24.22,0,0,1-24-24.22V161.76a24.21,24.21,0,0,1,24.21-24.21h76.82"></path><path class="cls-3" d="M250.93,158.73H228.12a2.5,2.5,0,0,1,0-5h22.81a2.5,2.5,0,0,1,0,5Z"></path><path class="cls-3" d="M250.93,201.07H228.12a2.5,2.5,0,0,1,0-5h22.81a2.5,2.5,0,0,1,0,5Z"></path><path class="cls-3" d="M250.93,243.37H228.12a2.5,2.5,0,0,1,0-5h22.81a2.5,2.5,0,0,1,0,5Z"></path><path class="cls-3" d="M250.93,285.71H228.12a2.5,2.5,0,0,1,0-5h22.81a2.5,2.5,0,0,1,0,5Z"></path><path class="cls-3" d="M250.93,328H228.12a2.5,2.5,0,0,1,0-5h22.81a2.5,2.5,0,1,1,0,5Z"></path><path class="cls-4" d="M155.75,165.92H113a3.5,3.5,0,0,1,0-7h42.72a3.5,3.5,0,0,1,0,7Z"></path><path class="cls-4" d="M207.49,226.72H113a3.5,3.5,0,0,1,0-7h94.46a3.5,3.5,0,0,1,0,7Z"></path><path class="cls-4" d="M207.49,250.34H113a3.5,3.5,0,0,1,0-7h94.46a3.5,3.5,0,0,1,0,7Z"></path><path class="cls-4" d="M207.49,274H113a3.5,3.5,0,0,1,0-7h94.46a3.5,3.5,0,0,1,0,7Z"></path><path class="cls-4" d="M207.49,297.57H113a3.5,3.5,0,0,1,0-7h94.46a3.5,3.5,0,0,1,0,7Z"></path><path class="cls-4" d="M207.49,321.19H113a3.5,3.5,0,0,1,0-7h94.46a3.5,3.5,0,1,1,0,7Z"></path><path class="cls-4" d="M363.64,177.48H269.17a3.5,3.5,0,0,1,0-7h94.47a3.5,3.5,0,0,1,0,7Z"></path><path class="cls-4" d="M363.64,201.1H269.17a3.5,3.5,0,0,1,0-7h94.47a3.5,3.5,0,0,1,0,7Z"></path><path class="cls-4" d="M363.64,224.71H269.17a3.5,3.5,0,0,1,0-7h94.47a3.5,3.5,0,0,1,0,7Z"></path><path class="cls-4" d="M363.64,248.33H269.17a3.5,3.5,0,0,1,0-7h94.47a3.5,3.5,0,0,1,0,7Z"></path><path class="cls-4" d="M363.64,272H269.17a3.5,3.5,0,0,1,0-7h94.47a3.5,3.5,0,0,1,0,7Z"></path><path class="cls-3" d="M430,156v22.74a5,5,0,0,1-10,0V156a40.58,40.58,0,0,0-40.54-40.54H363.18a5,5,0,0,1,0-10h16.27A50.59,50.59,0,0,1,430,156Z"></path><path class="cls-3" d="M376.6,96.34a5,5,0,0,1-1.79,3.84l-12.27,10.29,12.27,10.29a5,5,0,1,1-6.42,7.66L351.54,114.3a5,5,0,0,1,0-7.66l16.85-14.13a5,5,0,0,1,8.21,3.83Z"></path><path class="cls-3" d="M47.76,343.59V320.84a5,5,0,0,1,10,0v22.75A40.59,40.59,0,0,0,98.3,384.13h16.27a5,5,0,0,1,0,10H98.3A50.6,50.6,0,0,1,47.76,343.59Z"></path><path class="cls-3" d="M101.15,403.25a5,5,0,0,1,1.79-3.83l12.27-10.29-12.27-10.29a5,5,0,1,1,6.42-7.67l16.85,14.12a5,5,0,0,1,0,7.67l-16.85,14.12a5,5,0,0,1-8.21-3.83Z"></path><circle class="cls-5" cx="387.85" cy="340.83" r="62.73"></circle><circle class="cls-6" cx="387.85" cy="340.83" r="46.28"></circle><path class="cls-7" d="M386.69,362.73v-3.86a22.88,22.88,0,0,1-13-5.76l3.85-4.59a18.31,18.31,0,0,0,9.15,4.59V342.86q-6-1.42-8.75-3.75t-2.77-6.89a9.65,9.65,0,0,1,3.19-7.48,12.9,12.9,0,0,1,8.33-3.17v-2.64h3.38v2.69a22.09,22.09,0,0,1,11,4l-3.44,4.87a17,17,0,0,0-7.55-3.07v9.93h.15q6.09,1.44,8.93,3.86t2.86,7.05a9.59,9.59,0,0,1-3.28,7.53,13.63,13.63,0,0,1-8.66,3.18v3.8ZM383,328.62a3.78,3.78,0,0,0-1.35,3,3.72,3.72,0,0,0,1.06,2.8,10.55,10.55,0,0,0,4,2v-9.14A6.34,6.34,0,0,0,383,328.62Zm11.12,23.17a3.79,3.79,0,0,0,1.48-3.06,3.86,3.86,0,0,0-1.16-2.94,11.69,11.69,0,0,0-4.33-2v9.51A7.34,7.34,0,0,0,394.08,351.79Z"></path><circle class="cls-8" cx="358.09" cy="340.83" r="62.73"></circle><circle class="cls-6" cx="358.09" cy="340.83" r="46.28"></circle><path class="cls-7" d="M356.93,362.73v-3.86a22.88,22.88,0,0,1-13-5.76l3.86-4.59a18.25,18.25,0,0,0,9.14,4.59V342.86q-6-1.42-8.75-3.75t-2.77-6.89a9.65,9.65,0,0,1,3.19-7.48,12.92,12.92,0,0,1,8.33-3.17v-2.64h3.38v2.69a22.05,22.05,0,0,1,11,4l-3.44,4.87a17,17,0,0,0-7.55-3.07v9.93h.16q6.07,1.44,8.92,3.86t2.86,7.05a9.56,9.56,0,0,1-3.28,7.53,13.63,13.63,0,0,1-8.66,3.18v3.8Zm-3.73-34.11a4.06,4.06,0,0,0-.29,5.76,10.55,10.55,0,0,0,4,2v-9.14A6.34,6.34,0,0,0,353.2,328.62Zm11.12,23.17a3.79,3.79,0,0,0,1.48-3.06,3.83,3.83,0,0,0-1.16-2.94,11.69,11.69,0,0,0-4.33-2v9.51A7.34,7.34,0,0,0,364.32,351.79Z"></path><circle class="cls-5" cx="323.87" cy="340.83" r="62.73"></circle><circle class="cls-6" cx="323.87" cy="340.83" r="46.28"></circle><path class="cls-7" d="M322.71,362.73v-3.86a22.88,22.88,0,0,1-13-5.76l3.85-4.59a18.31,18.31,0,0,0,9.15,4.59V342.86q-6-1.42-8.75-3.75t-2.77-6.89a9.65,9.65,0,0,1,3.19-7.48,12.9,12.9,0,0,1,8.33-3.17v-2.64h3.38v2.69a22.09,22.09,0,0,1,11,4l-3.44,4.87a17,17,0,0,0-7.55-3.07v9.93h.16q6.08,1.44,8.92,3.86t2.86,7.05a9.56,9.56,0,0,1-3.28,7.53,13.63,13.63,0,0,1-8.66,3.18v3.8ZM319,328.62a3.78,3.78,0,0,0-1.35,3,3.72,3.72,0,0,0,1.06,2.8,10.55,10.55,0,0,0,4,2v-9.14A6.34,6.34,0,0,0,319,328.62Zm11.12,23.17a3.79,3.79,0,0,0,1.48-3.06,3.86,3.86,0,0,0-1.16-2.94,11.69,11.69,0,0,0-4.33-2v9.51A7.34,7.34,0,0,0,330.1,351.79Z"></path></svg>