<?xml version="1.0" standalone="no"?>
<!DOCTYPE svg PUBLIC "-//W3C//DTD SVG 20010904//EN"
 "http://www.w3.org/TR/2001/REC-SVG-20010904/DTD/svg10.dtd">
<svg version="1.0" xmlns="http://www.w3.org/2000/svg"
 width="115.000000pt" height="73.000000pt" viewBox="0 0 115.000000 73.000000"
 preserveAspectRatio="xMidYMid meet">

<g transform="translate(0.000000,73.000000) scale(0.100000,-0.100000)"
fill="#000000" stroke="none">
<path d="M116 553 c82 -178 98 -188 294 -198 98 -5 140 -11 152 -23 10 -8 15
-19 12 -23 -3 -5 -68 -9 -146 -9 -108 0 -139 -3 -135 -12 3 -7 20 -47 37 -88
48 -118 23 -111 379 -108 l306 3 21 85 c12 47 29 102 40 123 l18 37 -46 48
c-36 36 -46 53 -42 72 5 33 -43 127 -79 154 -38 28 -124 34 -529 35 l-327 1
45 -97z m807 36 c39 -46 67 -103 67 -135 0 -16 15 -43 40 -71 45 -51 47 -59
24 -84 -8 -9 -24 -56 -35 -103 -12 -47 -26 -87 -32 -87 -67 -7 -69 -4 -124
129 -18 44 -26 52 -48 52 -33 0 -84 48 -65 60 7 5 19 6 27 3 7 -3 19 -3 27 0
12 5 5 29 -35 118 -27 62 -53 117 -59 123 -5 5 -10 16 -10 24 0 12 17 14 97
10 96 -5 98 -6 126 -39z"/>
<path d="M870 455 c0 -6 57 -35 69 -35 6 0 15 9 21 20 10 19 8 20 -40 20 -27
0 -50 -2 -50 -5z"/>
</g>
</svg>
