<svg id="Layer_1" data-name="Layer 1" xmlns="http://www.w3.org/2000/svg" viewBox="0 0 500 500" width="500" height="500" class="illustration"><defs><style>.cls-1{fill:#c3c7c9;}.cls-2{fill:#24285b;}.cls-3,.cls-6{fill:#4bc487;}.cls-4{fill:#69e0a2;}.cls-5{fill:#fff;}.cls-6{opacity:0.56;}.cls-7{fill:#e2e2e2;}.cls-8{fill:#ffd44d;}.cls-9{fill:#f9bb0d;}.cls-10{fill:#0099f5;}</style></defs><title>ECommerce</title><path class="cls-1" d="M59,105.23H204.48a0,0,0,0,1,0,0V277.09a0,0,0,0,1,0,0h-179a0,0,0,0,1,0,0V138.67A33.44,33.44,0,0,1,59,105.23Z"></path><path class="cls-2" d="M84.39,111.81H218a0,0,0,0,1,0,0v59.8a0,0,0,0,1,0,0H84.39a29.9,29.9,0,0,1-29.9-29.9v0A29.9,29.9,0,0,1,84.39,111.81Z"></path><path class="cls-3" d="M302.16,55.49,81.2,174.31l-42.9,148,31.84,59.21a4.27,4.27,0,0,0,5.78,1.73L388.13,215.35a4.27,4.27,0,0,0,1.73-5.78L307.94,57.23A4.26,4.26,0,0,0,302.16,55.49Z"></path><polygon class="cls-4" points="95.28 200.49 288.45 96.61 346.26 204.12 89.63 342.13 69.84 305.33 95.28 200.49"></polygon><path class="cls-5" d="M204.23,257.89l-3.43-6.38a43.09,43.09,0,0,1-26.62,2l2.29-11q10.77,2.43,19.21-.53l-9.12-17q-11.15,3-17.8,1.57t-10.71-8.93a18.13,18.13,0,0,1-1.37-15.21q2.7-7.65,10.95-12.64l-2.35-4.37,5.59-3,2.39,4.46a41.36,41.36,0,0,1,21.7-3.22l-1.36,11.09a32,32,0,0,0-15.22,1.65l8.84,16.43.26-.15q11.31-3,18.19-1.56t11,9.13a18,18,0,0,1,1.27,15.36q-2.83,7.73-11.51,13l3.39,6.29Zm-36.5-53.08a7.09,7.09,0,0,0,.41,6.08,6.94,6.94,0,0,0,4.24,3.69q2.66.78,8.4-.29l-8.13-15.12A12,12,0,0,0,167.73,204.81Zm39,28.42a7.66,7.66,0,0,0-4.8-10.2c-1.93-.51-4.92-.34-9,.49l8.46,15.72A13.86,13.86,0,0,0,206.73,233.23Z"></path><path class="cls-6" d="M67.34,327.6l77.27-41.55a12.12,12.12,0,0,0,4.93-16.41L104.19,185.3,86.4,194.87,59.79,305.26Z"></path><path class="cls-4" d="M38.3,322.3l42.9-148L128,261.37a11.18,11.18,0,0,1-4.55,15.13Z"></path><path class="cls-3" d="M386.27,63.56l-221,118.83-42.9,148,31.84,59.21a4.27,4.27,0,0,0,5.78,1.73L472.24,223.42a4.28,4.28,0,0,0,1.74-5.78L392.05,65.3A4.27,4.27,0,0,0,386.27,63.56Z"></path><polygon class="cls-4" points="179.39 208.56 372.56 104.68 430.38 212.19 173.74 350.2 153.96 313.41 179.39 208.56"></polygon><path class="cls-5" d="M288.34,266l-3.43-6.38a43.09,43.09,0,0,1-26.62,2l2.3-11q10.76,2.43,19.2-.53l-9.12-16.95q-11.15,3-17.8,1.57t-10.71-8.93a18.13,18.13,0,0,1-1.37-15.21q2.72-7.65,11-12.64l-2.35-4.37,5.59-3,2.39,4.46a41.46,41.46,0,0,1,21.7-3.22l-1.35,11.09a32,32,0,0,0-15.22,1.65l8.83,16.43.26-.14q11.32-3,18.19-1.56t11,9.12a18,18,0,0,1,1.27,15.37q-2.82,7.72-11.5,12.94l3.38,6.29Zm-36.49-53.08a7.07,7.07,0,0,0,.4,6.09,7,7,0,0,0,4.24,3.68c1.77.52,4.58.42,8.4-.29l-8.12-15.12A11.91,11.91,0,0,0,251.85,212.88Zm39,28.42a7.65,7.65,0,0,0-4.8-10.2q-2.9-.75-9,.49l8.46,15.72A13.81,13.81,0,0,0,290.84,241.3Z"></path><path class="cls-6" d="M151.46,335.67l77.26-41.55a12.12,12.12,0,0,0,4.93-16.41L188.3,193.38l-17.78,9.56L143.9,313.33Z"></path><path class="cls-4" d="M122.41,330.37l42.9-148,46.82,87.05a11.18,11.18,0,0,1-4.55,15.13Z"></path><rect class="cls-1" x="25.52" y="171.61" width="409.02" height="273.41" rx="22"></rect><path class="cls-7" d="M85.24,171.61h327.3a22,22,0,0,1,22,22V346.38a71.39,71.39,0,0,1-71.39,71.39H156.63a71.39,71.39,0,0,1-71.39-71.39V171.61A0,0,0,0,1,85.24,171.61Z"></path><path class="cls-8" d="M434.53,256.76v20.75H345.7A10.52,10.52,0,0,0,335.18,288v48.25A10.52,10.52,0,0,0,345.7,346.8H450.5A10.52,10.52,0,0,0,461,336.28v-69a10.52,10.52,0,0,0-10.52-10.52Z"></path><path class="cls-9" d="M434.53,256.76h10.89a0,0,0,0,1,0,0v13.93a6.62,6.62,0,0,1-6.62,6.62h-4.27a0,0,0,0,1,0,0V256.76A0,0,0,0,1,434.53,256.76Z"></path><circle class="cls-10" cx="369.19" cy="312.78" r="11"></circle></svg>